<?xml version="1.0" standalone="no"?>
<!DOCTYPE svg PUBLIC "-//W3C//DTD SVG 20010904//EN"
 "http://www.w3.org/TR/2001/REC-SVG-20010904/DTD/svg10.dtd">
<svg version="1.0" xmlns="http://www.w3.org/2000/svg"
 width="500.000000pt" height="500.000000pt" viewBox="0 0 500.000000 500.000000"
 preserveAspectRatio="xMidYMid meet">
<metadata>
Created by potrace 1.16, written by Peter Selinger 2001-2019
</metadata>
<g transform="translate(0.000000,500.000000) scale(0.100000,-0.100000)"
fill="#000000" stroke="none">
<path d="M2463 3963 c-62 -85 -72 -153 -28 -190 14 -13 33 -23 41 -23 8 0 12
-4 9 -10 -3 -5 -14 -10 -24 -10 -32 0 -43 -22 -50 -97 -1 -9 -19 -13 -53 -13
-110 0 -147 -16 -131 -56 5 -13 19 -15 100 -9 l95 7 -4 -108 c-1 -60 1 -115 5
-121 5 -9 33 -13 77 -13 56 0 71 3 78 18 6 9 9 63 8 120 l-1 102 30 0 c49 0
214 -19 305 -35 316 -54 537 -184 515 -302 -2 -10 -4 -26 -4 -36 -2 -49 -124
-139 -251 -186 -131 -48 -123 -48 -274 20 -138 62 -170 68 -164 27 2 -18 29
-34 136 -82 l132 -60 0 -323 c0 -178 -2 -323 -4 -323 -7 0 -450 241 -463 252
-7 6 -10 20 -7 33 8 30 -12 65 -36 65 -20 0 -27 -16 -32 -73 -3 -26 -22 -39
-233 -152 -126 -69 -233 -124 -237 -125 -5 0 -8 145 -8 323 l0 323 238 106
237 106 5 -232 c3 -127 7 -232 8 -233 5 -7 41 -2 46 6 3 4 6 108 6 230 l1 222
25 9 c37 15 30 44 -16 65 -34 15 -44 16 -68 5 -15 -7 -137 -62 -272 -122
l-244 -109 -86 26 c-115 36 -211 88 -260 141 -37 41 -42 53 -42 104 0 51 5 63
42 104 75 82 238 148 465 190 116 22 120 23 123 49 3 25 1 27 -33 27 -50 0
-218 -35 -318 -66 -166 -52 -300 -144 -332 -227 -14 -37 -15 -95 -13 -459 l3
-416 31 -44 c60 -83 223 -173 385 -210 49 -12 22 -24 344 152 28 15 93 50 145
78 l95 51 225 -123 c124 -67 244 -132 267 -145 l42 -24 100 32 c182 57 293
128 336 215 l25 50 0 395 c0 254 -4 410 -11 435 -23 84 -157 182 -319 234
-158 51 -392 92 -527 92 l-52 0 -6 38 c-9 53 -17 65 -56 75 l-34 10 31 8 c64
18 84 80 49 150 -20 40 -64 89 -80 89 -6 0 -20 -12 -32 -27z m57 -93 c15 -36
7 -60 -20 -60 -11 0 -23 7 -26 15 -7 17 14 75 26 75 4 0 13 -13 20 -30z m0
-345 c0 -138 -1 -145 -20 -145 -19 0 -20 7 -20 145 0 138 1 145 20 145 19 0
20 -7 20 -145z m-911 -484 c52 -41 133 -80 231 -112 l85 -27 3 -46 c4 -60 -19
-103 -61 -114 -62 -17 -111 16 -125 84 -10 51 -37 56 -77 14 -35 -37 -67 -39
-85 -5 -12 22 -22 235 -11 235 2 0 20 -13 40 -29z m1827 -69 c-2 -145 -36
-185 -105 -126 -42 35 -63 29 -73 -22 -11 -52 -44 -84 -89 -86 -68 -2 -103 41
-97 121 l3 43 85 27 c94 30 219 92 246 122 9 10 20 19 24 19 4 0 7 -44 6 -98z
m-32 -214 c32 14 34 6 32 -159 -1 -158 -11 -182 -96 -241 -51 -37 -181 -93
-241 -105 l-29 -5 0 225 0 225 42 -15 c60 -20 127 -3 168 43 16 19 30 39 30
44 0 5 16 2 35 -7 27 -13 40 -14 59 -5z m-1605 -79 c37 -11 50 -11 87 3 l44
16 0 -229 c0 -126 -1 -229 -3 -229 -18 0 -162 57 -217 86 -70 37 -139 102
-141 133 0 9 -1 78 -2 153 l-2 138 30 -5 c17 -3 43 1 60 8 28 13 31 11 65 -24
21 -22 53 -42 79 -50z"/>
<path d="M2600 3135 c-18 -22 -5 -42 37 -60 48 -20 68 -16 68 15 0 20 -8 28
-47 42 -40 15 -48 15 -58 3z"/>
<path d="M1199 2065 c-29 -16 -59 -79 -59 -123 0 -46 20 -103 45 -128 29 -28
99 -33 144 -9 27 14 56 67 44 79 -15 15 -51 4 -61 -18 -21 -48 -89 -36 -104
19 -10 36 -3 112 13 131 6 8 27 14 45 14 27 0 37 -5 46 -25 8 -18 19 -25 40
-25 15 0 28 3 28 6 0 21 -35 73 -56 83 -34 15 -93 13 -125 -4z"/>
<path d="M1505 1948 c-27 -73 -50 -139 -53 -145 -3 -9 6 -13 26 -13 23 0 32 6
42 30 12 28 16 30 65 30 51 0 54 -1 60 -30 6 -26 11 -30 40 -30 l34 0 -25 68
c-15 37 -39 101 -54 142 -25 68 -30 75 -57 78 -30 3 -30 2 -78 -130z m98 0
l16 -48 -35 0 c-32 0 -34 2 -28 28 10 39 24 75 28 71 2 -2 10 -25 19 -51z"/>
<path d="M1800 1935 l0 -145 30 0 c29 0 30 2 30 44 0 44 24 81 38 60 4 -6 21
-32 37 -57 26 -40 35 -47 63 -47 17 0 32 2 32 4 0 3 -22 40 -49 82 l-50 77 50
61 49 61 -32 3 c-34 4 -35 3 -105 -83 l-32 -40 -1 63 0 62 -30 0 -30 0 0 -145z"/>
<path d="M2110 1935 l0 -145 100 0 100 0 0 25 c0 24 -2 25 -71 25 l-70 0 3 38
3 37 58 3 c48 3 57 6 57 22 0 16 -9 19 -57 22 -57 3 -58 3 -61 36 l-3 32 70 0
c69 0 71 1 71 25 l0 25 -100 0 -100 0 0 -145z"/>
<path d="M2426 2059 c-18 -14 -26 -30 -26 -52 0 -46 12 -58 82 -92 69 -33 84
-58 46 -75 -29 -14 -78 2 -78 25 0 10 -10 15 -30 15 -40 0 -40 -30 1 -64 43
-37 129 -37 164 -1 50 49 21 108 -70 145 -59 24 -72 50 -35 70 27 14 57 4 65
-21 7 -20 31 -25 54 -10 16 11 1 43 -31 65 -33 23 -110 21 -142 -5z"/>
<path d="M2700 1935 l0 -145 30 0 c29 0 30 1 30 49 l0 49 56 4 c70 6 105 37
107 93 1 30 -5 43 -31 66 -30 27 -38 29 -112 29 l-80 0 0 -145z m149 86 c7 -5
14 -21 14 -36 0 -33 -17 -45 -65 -45 l-38 0 0 45 0 45 38 0 c20 0 43 -4 51 -9z"/>
<path d="M3055 1948 c-26 -73 -50 -139 -53 -145 -3 -9 6 -13 27 -13 27 0 34 5
42 30 10 28 14 30 64 30 51 0 54 -1 60 -30 6 -26 11 -30 40 -30 l34 0 -25 68
c-15 37 -39 101 -54 142 -25 68 -30 75 -57 78 -29 3 -30 2 -78 -130z m98 0
l16 -48 -35 0 c-32 0 -34 2 -28 28 10 39 24 75 28 71 2 -2 10 -25 19 -51z"/>
<path d="M3399 2065 c-29 -16 -59 -79 -59 -123 0 -47 21 -104 47 -128 48 -44
155 -26 181 31 18 38 15 45 -16 45 -21 0 -32 -7 -40 -24 -21 -48 -89 -36 -104
19 -10 36 -3 112 13 131 6 8 27 14 45 14 27 0 37 -5 46 -25 8 -18 19 -25 41
-25 22 0 28 4 23 16 -3 9 -6 20 -6 25 0 6 -12 21 -26 34 -31 29 -102 34 -145
10z"/>
<path d="M3670 1935 l0 -145 101 0 c98 0 100 0 97 23 -3 20 -9 22 -70 25 l-68
3 0 39 0 39 57 3 c46 2 59 7 61 21 3 15 -5 17 -57 17 l-61 0 0 35 0 34 68 3
c61 3 67 5 70 26 3 22 1 22 -97 22 l-101 0 0 -145z"/>
<path d="M2703 1600 c0 -47 1 -56 6 -30 9 50 41 55 41 6 0 -20 5 -36 11 -36 6
0 9 13 6 34 -6 46 -15 58 -37 51 -14 -4 -20 0 -23 17 -2 13 -4 -6 -4 -42z"/>
<path d="M2190 1595 l0 -55 38 1 c30 2 32 3 10 6 -26 4 -28 8 -28 54 0 27 -4
49 -10 49 -5 0 -10 -25 -10 -55z"/>
<path d="M2815 1624 c15 -24 15 -27 0 -51 -9 -13 -14 -28 -10 -31 6 -6 18 8
29 33 4 9 21 -8 29 -30 3 -5 7 -7 11 -3 4 3 0 18 -9 31 -15 24 -15 27 0 51 19
29 10 36 -11 9 -13 -17 -15 -17 -25 0 -5 9 -15 17 -21 17 -6 0 -3 -11 7 -26z"/>
<path d="M2304 1614 c-18 -13 -17 -14 9 -8 16 4 27 2 27 -4 0 -6 -10 -12 -22
-14 -15 -2 -23 -10 -23 -23 0 -15 8 -21 33 -23 31 -3 32 -2 32 32 0 44 -27 63
-56 40z m34 -46 c-6 -18 -28 -21 -28 -4 0 9 7 16 16 16 9 0 14 -5 12 -12z"/>
<path d="M2450 1606 c0 -35 -10 -56 -26 -56 -9 0 -14 12 -14 35 0 19 -4 35
-10 35 -11 0 -13 -39 -4 -64 4 -10 18 -16 35 -16 28 0 29 2 29 45 0 25 -2 45
-5 45 -3 0 -5 -11 -5 -24z"/>
<path d="M2518 1622 c-14 -3 -18 -13 -16 -45 l1 -42 4 38 c3 28 9 37 23 37 14
0 20 -9 23 -37 l4 -38 1 41 c2 43 -7 54 -40 46z"/>
<path d="M2616 1617 c-12 -9 -17 -23 -14 -42 2 -24 8 -31 31 -33 15 -2 27 1
27 6 0 5 -10 8 -22 8 -18 -1 -23 5 -23 24 0 21 4 25 28 23 32 -2 34 2 8 16
-13 7 -23 6 -35 -2z"/>
</g>
</svg>
